# xmcd
#
# Track frame offsets: 
#        150
#        15977
#        32017
#        45872
#        58275
#        75270
#        92562
#        109727
#        131162
#        142517
#        154752
#        167937
#
# Disc length: 2417 seconds
#
# Revision: 8
# Processed by: cddbd v1.5.2PL0 Copyright (c) Steve Scherf et al.
# Submitted via: ExactAudioCopy v0.95b3
#
DISCID=86096f0c
DTITLE=Willie Nelson - The Many Sides Of Willie Nelson: Duets
DYEAR=1992
DGENRE=Country
TTITLE0=Reasons To Quit (with Merle Haggard)
TTITLE1=Slow Movin' Outlaw (with Lacy J. Dalton)
TTITLE2=Half A Man (with George Jones)
TTITLE3=How Do You Feel About Foolin' Around (with Kris Kristofferson)
TTITLE4=Take It To The Limit (with Waylon Jennings)
TTITLE5=Seven Spanish Angels (with Ray Charles)
TTITLE6=Faded Love (with Ray Price)
TTITLE7=Pancho and Lefty (with Merle Haggard)
TTITLE8=Hello Walls (with Faron Young)
TTITLE9=I'm Movin' On (with Hank Snow)
TTITLE10=You're Gonna Love Yourself (In the Morning) (with Brenda Lee)
TTITLE11=Heartbreak Hotel (with Leon Russell)
EXTD=YEAR: 1992 ID3G: 2
EXTT0=
EXTT1=
EXTT2=
EXTT3=
EXTT4=
EXTT5=
EXTT6=
EXTT7=
EXTT8=
EXTT9=
EXTT10=
EXTT11=
PLAYORDER=
